<mxfile host="app.diagrams.net" agent="Mozilla/5.0 (Windows NT 10.0; Win64; x64) AppleWebKit/537.36 (KHTML, like Gecko) Chrome/131.0.0.0 Safari/537.36" version="25.0.3">
  <diagram name="第 1 页" id="maKB_V1inOgE-ZNDLAnU">
    <mxGraphModel dx="3245" dy="634" grid="1" gridSize="10" guides="1" tooltips="1" connect="1" arrows="1" fold="1" page="1" pageScale="1" pageWidth="1654" pageHeight="2336" math="0" shadow="0">
      <root>
        <mxCell id="0" />
        <mxCell id="1" parent="0" />
        <mxCell id="xcaynpqjky86MegLARN_-1" value="" style="shape=image;verticalLabelPosition=bottom;labelBackgroundColor=default;verticalAlign=top;aspect=fixed;imageAspect=0;image=data:image/png,iVBORw0KGgoAAAANSUhEUgAAAWoAAABDCAIAAAA6btj+AAAOp0lEQVR4Ae2d7U8bRx7H90X+AN5E8ou+iVQZRXdIpcqL0ocXQfRFIlVKkaKeeoqPHkp7kVs1Ckoqk6Kans/xIYuHCyHNFRA5MJcUnJT0fEmIQFES4R5ESw4ClzsRIuqjTuS0JgS0HOswp5nZh/F6/cD6EfOLUBjvzsz+5uuZz/7mN7MLh+AfKAAKgAKGFOAMlYJCoAAoAAogwAd0AlAAFDCoAODDoHBQDBQABQAf0AdAAVDAoAKAD4PCQTFQABQAfEAfAAVAAYMKAD4MCgfFQAFQAPABfQAUAAUMKgD4MCgcFAMFQAHAB/QBUAAUMKgA4MOgcFAMFAAFAB/QB0ABUMCgAoAPg8JBMVAAFAB8QB8ABUABgwoAPgwKB8VAAVAA8AF9ABQABQwqAPgwKBwUAwVAAcAH9AFQABQwqADgw6BwUAwUAAUAH9AHQAFQwKACgA+DwkExUAAUAHxAHwAFQAGDCgA+DAoHxUABUADwAX0AFAAFDCoA+DAoHBQDBUABwAf0gfwpEHnR/3vx74sb+bNgO1x5Y7Jr3Tn+IhtNzQo+xr5EHIcc/jQMDqL2I6jiZVwP/fEE0qhtyxUVZnxf7LHVHuj0h7ac7akaHHnR/+n6jvL1w1ez0rOxGRPnuRI783N+LLFxS7PepvbKCrWIYyJxgTTOCrPtNXau1FV3I5hSLYu+6hI7V+NLLTdT5f8iznexzs7JzGO6IPExiSpNKjiKCR9P7nb1nNrnnWa+Xd3ktMtmMeOfxoEnuhnQ2tyI62x93ehWxcvGZAfu04eGssaOzeLj6S3rqyo4KHSyiA8FbSkSwTA+EEKL4qE31ne8sX7psX5nMny0EPHh/QCzY78TBQXD7SrQgvd7MBT6kuIjufcRGm002yyHtyg+hCnxzfL1lz4VH0Vy803xDuyGJPI++DYHV2KvOOHjn4q5sCln3gdpjDAu7iGCb9p5SahFIeLDwSHuFcQntHuLnkwVH8mbt5XxEYl0W7Dr0Z/pm2F82ZLiI+ipsXMl7d6n8evI75l0vA9s+caoE2t+/E4mpzCFh48AquYQdxBlFpP5/eqVqwM+EEKCX3ypfH3Pn3PkeBDxk+IjaQblO8xTIl18IPSD+E75+g6L+ChzLcgMPoKjyHoQ7aJhzpelkKc2dEqiobtJUMP0S2T9EwrqOomFho/Is7lbrtPHXpeCETQkQf5vGWYCD8szt7s/bvyQBCw+3He6+8rcsvItUU+BnGKKKxUycxltzqhL4Pr4Pr0a5Kq0c5mf+a6z9dTysob6uiE+xEhOqurh0ePrncfKbJY9Lb45FAlNdL/XYDE3fNZxf1WxP7OJF5dO4Ntg9w8Jqg3Pfuex1jh2kcDnrqp2xyCv01uejLcfc+8uxQELU4Xbem5cJ490kaR0SJohgbWbOkXdHDXIUj0Y50YZHcfdXeUwsaHTBd/7uOGOk/7n7OWDl1txtqqLes67pHzzA7YEmxb4jupdnKnSOZZi2CAD+PB9og1z0mAniw/BjyrkNRRlMYV7DY3JbaeLNeopTeYv2UbmMr12v2efPDi1418d248HTtdqz9pqD49KzrkWCpoKs4MPfcsbe3i5ZxB8fN3hPapY3jjsO6zY1nhhJitCL4uflK/v+HWCe2DId0IdXcq6iWaYCRPnK6JWVUiRqvNjK7pW69MhONiq1K+TSDGoqXvBuAdTwocwdXE/waLWKsYkSYHSzhGlyZQppa2eBf3Lh4cxuPd0xfP7xhwc/Ved4kJnuvgI9mN2mPYizySS+uVz5CVAUfERQlYT4l6LyjPiRCYOlTdJ7SxQfMx1NFrMtqP1o3PP6H17eW6g86gZo0HxPCIzeATWvneBDwj0e1kPzQ3X44JNV1QXhDQ09cnLk2E8klVCaftDktjH8p06m8Xc2DYwt7RGiwo/+i98XmazVHr/TQ/IjsxR1/1VdO9rCpGy08MBcb7LmWjRR2vK5j5Pigl7MEIPhyrxbdbLP5U6lLAUGOvrrPuOuUs/HbGW2rmqrzxTISnTSmCk2W0qsZe3TenZUzj4UK2j8NJgEZ8WeMdbmIbVbePzK7TfCWHeS2RhF24FvtmFPa9jI2FcLEDCNy7HhHxPVi8lpxbFg+XrOz4VGSnlU/h3zr0P9ysYHxpWafZ9zHfjPO3/Yg3F6c639UKkBTV5IQuoTb6oPSeLvvfY1RPxbqPNYu70S6NUbuTaRIfZZqnzR/MjV/gI+OrNtuNdC5rbTKDPaTHLbgXFR1nPP7DllFbSOnFooCVr+AgO4RvgwQTrtVMXyzE+huaZiZasqvR7vs/Nlbja/6M93PmunXtL12/XxwdTPmkGJm+GkvHwEb7azpXYy5sUP5FcTz/2EfB8hEHz/uUAfwajpEJTSmtqxFm+vuMNcVJ73ODn9LwPOtQPacOcGnz4jujPbuhUxUfIqZpfUPiI531YKr1zkslzFyoVhz8moWajuXOEj+XrZxOESNzXCdMoPlz3CGIoPihKUPbx4UzUf6Uhwb3qtp4b4Rdi76Vh3zGd2Y3s57f7ltTeJKeS0iFpBrmmzP2Oh4+xJtw6hyZ6oY8PhFbG6krtXKndVGI3feSbT2IewUe5mM6OTvYKmcBHTGBCgw/PwS2LD7R275xO0JSJICBKhBhw0LlAnvBBx388gkTj4z7pDhQfUhQmz/hACIX4vs79yiYuzBE2LKoNH8jgoEwpDny0ehbZcYpQPHwgJEdwXO2z0UV0PhUgPo4gjQOhiw/NBEenafRQQXkfqzd7as2NpxrPfrGvAY9Gsn7hD8jRR2xx6g7FpjKnFftIafxL3kde8JFo8qL2DFFYmPWe+4pyxPTRdXnGTvERM8DUgrGppM5F0gyxdaZ7JKH34XBrYjjx8EHDpVUuHEiOGzlWTC2oyUsYWWO2eAmTaD9ZnVVCp3wz9j5qLyltSJgoJHyQMIdlOOHuJilI6UlpnUJizT8TKkBOpoaPeLbNeK1mm+Xj2zpuvHLp/OADjePQ6UsdmqiMYpVeQpxtf9fOlai84M/gHaK13ynha71SUceS0iFphqjqMvIhHj70WhfwncChDe0zLyu8o8rOlbg7H4rzg3jJVg6jxjHwqXgoUeg0Tqn4h9ObvCBEN5hXfInCIkIi4vvVBVoFH2hSOmjtRvOxM1mNcYWEDzLay05/O/Pz8rNl1uVgbV66fhav2pY19d5ckJc52PNseuHbA3ia85nr3mNNqJXNhdPJ8EFDs+ZG98CcHiPmLpD15qP1vml5PUh7hTzhg/bg+Au3wctf1bb5xhbCghQ6FYWFW3V4JaLVqzz/M3WRrNq6rH28vDahbV7056R0SJqB1Bfw1e01cabdtd8kCzJEX173Uzx8IBo8Lm31PMR9Tlgcd/xKjvUwC7cIPR/7A8Zo9QUa2pfDqINRkX720sIdzO63/xqP3TlfeREmVF7QUKjpHeTtwO6Gig+E+Ga8TBu7raO6n20dSRcSPsTZFrz+qvmpfd15quMec+d7cocs02qyWcy2Hk34C6HQldgdIuq+jwQxi5hn5/RsY5aTV2e8eJk2xnj1MZk84QO96P840bYxeSYvDxh5c0dl2xQD8Of8GbxMGx31wB/ZdVAag4zNgwOT2kdpU8KHMHrSJO2MsGpD/jEdWf8AnYPoWc54FkEvWU9hLHdZr/pORnsf1N3gaphwqbSXLN7a7cboH7Hy8beN5XzfB0IoPI3q9hE0vCztJQ1f0eIDZ5tAjg8Q3XWqcKTA8YFWZ4Y+JyGPYwecx2n4Qx6Q6q4w3E+EH28OtVikXafKoI3FB0JiyK/JaQwfCKHl+St9pw40qDvWGHwghCKhB8Ox+2WVPPnCBwpfJZuXWiMMDpixJoZnb3itNS66nZQrdVRaz3sm5LgHkzHM+xxWOZs8ILOKD4TCIw3lFCDs3ZExKlkyJXwgJAZH2lqpArtrz3tnwwjNut9SJy/ynjHtDjGJKbpBkMdk00eiTes59z6SqbWlz69NdJTZLHgnFdsMcWlmCD/tqmygYE9COgUFIpFm8gaK/q34oqDbJwk+Ut2XmYIcucmy4Xdjajf4C/6RudzokfWrCDd7sB9RPxHz9AcNYcj7r7JuSPFdQHl+PFcP7GdEQiE86bG+hulhOmJw7pIROwxUIkySNyTYRM0iqYGq2CLphk7ZuootLeGj7PQ3/OKqHOlcDy34W5rwfEHZ/V1s7c5Jezb8rfhm+Ga8KUxOjNjERfzy4yAcZ9rrUJ7V2kQNecwqvS5IHI25EaZpVJHhg87n5fCEEoPQJGzJMuD8rvto7YGHLJRoiuOPZc7e6D3FaX4PBVk84Y44RcPfunT0Uc5KCZ2Hd+SXFR76WzZfOJYpYTE+dlUctLov4TjEVvq35V5WmD9xM4sP3I6fpwf6Th1QY6LWAy0tXROBZ/lrY+6unF18IIRWI8020b+cydl47tTZMlfCjl42XnSKECoy72PLfKVgKChQBAoAPorgS4QmgAL5UQDwkR/d4aqgQBEoYBwf09PTKyvKe46KQApoAigACmxOAcDH5vSC3KAAKKAoAPhQpIAEKAAKbE4BwMfm9ILcoAAooCgA+FCkgAQoAApsTgHAx+b0gtygACigKFCk+Ljb3LtzZ+/Ondfu4pZOu3G6d++Z6L+PM3GN5Ol1k3c/SEUqb0T/Adqgt4ZUVXMbv3vyye1aUtXxGz8pEkICFNiuChQpPhYHBzEafnGNvNFbwket5u95ySxoJW+VlPBBMcF0B+n47/z4VVdyEUocJhckQYFtqEBx40NiwaO/VGMPIg4+Buk78Ob7LmLixMNHM3FK1u7aifcB+NiGYwWaHKNAkeJj7dYVhgXSBEQ75iUWSPiQHBaKCUYnCSvScerISEWYXJAEBbahAkWKD0TjGk4ax/jp2mfY+9DiQ4qJ+L4n3/vSjcuYODH4oFj5zeB/Sa4HZyt7d+4EfGzDoQJNjlWgWPER21I4AgqAAhlWAPCRYUGhOlBg+ygA+Ng+3zW0FBTIsAKAjwwLCtWBAttHAcDH9vmuoaWgQIYV+D8G37B87YSk9gAAAABJRU5ErkJggg==;" parent="1" vertex="1">
          <mxGeometry x="90" y="50" width="270.15" height="50" as="geometry" />
        </mxCell>
        <mxCell id="xcaynpqjky86MegLARN_-9" value="" style="group" parent="1" vertex="1" connectable="0">
          <mxGeometry x="100" y="260" width="390" height="110" as="geometry" />
        </mxCell>
        <mxCell id="xcaynpqjky86MegLARN_-2" value="" style="strokeWidth=2;html=1;shape=mxgraph.flowchart.direct_data;whiteSpace=wrap;" parent="xcaynpqjky86MegLARN_-9" vertex="1">
          <mxGeometry y="80" width="210" height="30" as="geometry" />
        </mxCell>
        <mxCell id="xcaynpqjky86MegLARN_-3" value="" style="strokeWidth=2;html=1;shape=mxgraph.flowchart.direct_data;whiteSpace=wrap;" parent="xcaynpqjky86MegLARN_-9" vertex="1">
          <mxGeometry x="190" y="80" width="200" height="30" as="geometry" />
        </mxCell>
        <mxCell id="xcaynpqjky86MegLARN_-5" value="" style="html=1;shadow=0;dashed=0;align=center;verticalAlign=middle;shape=mxgraph.arrows2.triadArrow;dy=17.6;dx=10;arrowHead=40;rotation=-180;" parent="xcaynpqjky86MegLARN_-9" vertex="1">
          <mxGeometry x="100" y="30" width="80" height="50" as="geometry" />
        </mxCell>
        <mxCell id="xcaynpqjky86MegLARN_-6" value="" style="html=1;shadow=0;dashed=0;align=center;verticalAlign=middle;shape=mxgraph.arrows2.triadArrow;dy=17.6;dx=10;arrowHead=40;rotation=-180;" parent="xcaynpqjky86MegLARN_-9" vertex="1">
          <mxGeometry x="200" y="30" width="80" height="50" as="geometry" />
        </mxCell>
        <mxCell id="xcaynpqjky86MegLARN_-7" value="&lt;font style=&quot;font-size: 14px;&quot;&gt;&lt;b&gt;开关1&lt;/b&gt;&lt;/font&gt;" style="text;html=1;align=center;verticalAlign=middle;resizable=0;points=[];autosize=1;strokeColor=none;fillColor=none;" parent="xcaynpqjky86MegLARN_-9" vertex="1">
          <mxGeometry x="110" width="60" height="30" as="geometry" />
        </mxCell>
        <mxCell id="xcaynpqjky86MegLARN_-8" value="&lt;font style=&quot;font-size: 14px;&quot;&gt;&lt;b&gt;开关2&lt;/b&gt;&lt;/font&gt;" style="text;html=1;align=center;verticalAlign=middle;resizable=0;points=[];autosize=1;strokeColor=none;fillColor=none;" parent="xcaynpqjky86MegLARN_-9" vertex="1">
          <mxGeometry x="210" width="60" height="30" as="geometry" />
        </mxCell>
        <mxCell id="kg68-Rnl9jc69O7SToxk-4" style="edgeStyle=orthogonalEdgeStyle;rounded=0;orthogonalLoop=1;jettySize=auto;html=1;exitX=0.5;exitY=1;exitDx=0;exitDy=0;entryX=0.5;entryY=0;entryDx=0;entryDy=0;" edge="1" parent="1" source="kg68-Rnl9jc69O7SToxk-1" target="kg68-Rnl9jc69O7SToxk-2">
          <mxGeometry relative="1" as="geometry" />
        </mxCell>
        <mxCell id="kg68-Rnl9jc69O7SToxk-1" value="&lt;div style=&quot;background-color: rgb(255, 255, 255); font-family: Consolas, &amp;quot;Courier New&amp;quot;, monospace; font-size: 18px; line-height: 24px; white-space: pre;&quot;&gt;&lt;span style=&quot;color: #001080;&quot;&gt;self&lt;/span&gt;.&lt;span style=&quot;color: #001080;&quot;&gt;model&lt;/span&gt; = &lt;span style=&quot;color: #001080;&quot;&gt;self&lt;/span&gt;.&lt;span style=&quot;color: #795e26;&quot;&gt;build_model&lt;/span&gt;(&lt;span style=&quot;color: #001080;&quot;&gt;model&lt;/span&gt;)&lt;/div&gt;" style="rounded=0;whiteSpace=wrap;html=1;" vertex="1" parent="1">
          <mxGeometry x="80" y="530" width="380" height="30" as="geometry" />
        </mxCell>
        <mxCell id="kg68-Rnl9jc69O7SToxk-5" style="edgeStyle=orthogonalEdgeStyle;rounded=0;orthogonalLoop=1;jettySize=auto;html=1;exitX=0.5;exitY=1;exitDx=0;exitDy=0;entryX=0.5;entryY=0;entryDx=0;entryDy=0;" edge="1" parent="1" source="kg68-Rnl9jc69O7SToxk-2" target="kg68-Rnl9jc69O7SToxk-3">
          <mxGeometry relative="1" as="geometry" />
        </mxCell>
        <mxCell id="kg68-Rnl9jc69O7SToxk-2" value="&lt;div style=&quot;background-color: rgb(255, 255, 255); font-family: Consolas, &amp;quot;Courier New&amp;quot;, monospace; font-size: 18px; line-height: 24px; white-space: pre;&quot;&gt;&lt;span style=&quot;color: #0000ff;&quot;&gt;def&lt;/span&gt; &lt;span style=&quot;color: #795e26;&quot;&gt;build_model&lt;/span&gt;(&lt;span style=&quot;color: #001080;&quot;&gt;self&lt;/span&gt;, &lt;span style=&quot;color: #001080;&quot;&gt;model&lt;/span&gt;: &lt;/div&gt;&lt;div style=&quot;background-color: rgb(255, 255, 255); font-family: Consolas, &amp;quot;Courier New&amp;quot;, monospace; font-size: 18px; line-height: 24px; white-space: pre;&quot;&gt;&lt;span style=&quot;color: #267f99;&quot;&gt;Union&lt;/span&gt;[&lt;span style=&quot;color: #267f99;&quot;&gt;nn&lt;/span&gt;.&lt;span style=&quot;color: #267f99;&quot;&gt;Module&lt;/span&gt;, &lt;span style=&quot;color: #001080;&quot;&gt;Dict&lt;/span&gt;]) -&amp;gt; &lt;span style=&quot;color: #267f99;&quot;&gt;nn&lt;/span&gt;.&lt;span style=&quot;color: #267f99;&quot;&gt;Module&lt;/span&gt;:&lt;/div&gt;" style="rounded=0;whiteSpace=wrap;html=1;" vertex="1" parent="1">
          <mxGeometry x="77.5" y="600" width="385" height="50" as="geometry" />
        </mxCell>
        <mxCell id="kg68-Rnl9jc69O7SToxk-8" style="edgeStyle=orthogonalEdgeStyle;rounded=0;orthogonalLoop=1;jettySize=auto;html=1;exitX=0.5;exitY=1;exitDx=0;exitDy=0;entryX=0.5;entryY=0;entryDx=0;entryDy=0;" edge="1" parent="1" source="kg68-Rnl9jc69O7SToxk-3" target="kg68-Rnl9jc69O7SToxk-7">
          <mxGeometry relative="1" as="geometry" />
        </mxCell>
        <mxCell id="kg68-Rnl9jc69O7SToxk-9" style="edgeStyle=orthogonalEdgeStyle;rounded=0;orthogonalLoop=1;jettySize=auto;html=1;exitX=1;exitY=0.5;exitDx=0;exitDy=0;entryX=0.5;entryY=0;entryDx=0;entryDy=0;dashed=1;" edge="1" parent="1" source="kg68-Rnl9jc69O7SToxk-3" target="kg68-Rnl9jc69O7SToxk-6">
          <mxGeometry relative="1" as="geometry" />
        </mxCell>
        <mxCell id="kg68-Rnl9jc69O7SToxk-3" value="&lt;div style=&quot;background-color: rgb(255, 255, 255); font-family: Consolas, &amp;quot;Courier New&amp;quot;, monospace; font-size: 18px; line-height: 24px; white-space: pre;&quot;&gt;&lt;span style=&quot;color: #001080;&quot;&gt;model&lt;/span&gt; = &lt;span style=&quot;color: #0070c1;&quot;&gt;MODELS&lt;/span&gt;.&lt;span style=&quot;color: #795e26;&quot;&gt;build&lt;/span&gt;(&lt;span style=&quot;color: #001080;&quot;&gt;model&lt;/span&gt;)&lt;/div&gt;" style="rounded=0;whiteSpace=wrap;html=1;" vertex="1" parent="1">
          <mxGeometry x="131.5" y="690" width="277" height="40" as="geometry" />
        </mxCell>
        <mxCell id="kg68-Rnl9jc69O7SToxk-6" value="&lt;div style=&quot;background-color: rgb(255, 255, 255); font-family: Consolas, &amp;quot;Courier New&amp;quot;, monospace; font-size: 18px; line-height: 24px; white-space: pre;&quot;&gt;&lt;span style=&quot;color: #0070c1;&quot;&gt;MODELS&lt;/span&gt; = &lt;span style=&quot;color: #267f99;&quot;&gt;Registry&lt;/span&gt;(&lt;span style=&quot;color: #a31515;&quot;&gt;&#39;model&#39;&lt;/span&gt;, &lt;/div&gt;&lt;div style=&quot;background-color: rgb(255, 255, 255); font-family: Consolas, &amp;quot;Courier New&amp;quot;, monospace; font-size: 18px; line-height: 24px; white-space: pre;&quot;&gt;&lt;span style=&quot;color: #795e26;&quot;&gt;build_model_from_cfg&lt;/span&gt;)&lt;/div&gt;" style="rounded=0;whiteSpace=wrap;html=1;" vertex="1" parent="1">
          <mxGeometry x="420" y="740" width="280" height="50" as="geometry" />
        </mxCell>
        <mxCell id="kg68-Rnl9jc69O7SToxk-11" style="edgeStyle=orthogonalEdgeStyle;rounded=0;orthogonalLoop=1;jettySize=auto;html=1;exitX=0.5;exitY=1;exitDx=0;exitDy=0;entryX=0.5;entryY=0;entryDx=0;entryDy=0;" edge="1" parent="1" source="kg68-Rnl9jc69O7SToxk-7" target="kg68-Rnl9jc69O7SToxk-10">
          <mxGeometry relative="1" as="geometry" />
        </mxCell>
        <mxCell id="kg68-Rnl9jc69O7SToxk-7" value="&lt;div style=&quot;background-color: rgb(255, 255, 255); font-family: Consolas, &amp;quot;Courier New&amp;quot;, monospace; font-size: 18px; line-height: 24px; white-space: pre;&quot;&gt;&lt;div style=&quot;line-height: 24px;&quot;&gt;&lt;div&gt;&lt;span style=&quot;color: #0000ff;&quot;&gt;def&lt;/span&gt; &lt;span style=&quot;color: #795e26;&quot;&gt;build_model_from_cfg&lt;/span&gt;(&lt;span style=&quot;color: rgb(0, 16, 128);&quot;&gt;cfg&lt;/span&gt;: &lt;span style=&quot;color: rgb(38, 127, 153);&quot;&gt;Union&lt;/span&gt;[&lt;span style=&quot;color: rgb(38, 127, 153);&quot;&gt;dict&lt;/span&gt;, &lt;span style=&quot;color: rgb(38, 127, 153);&quot;&gt;ConfigDict&lt;/span&gt;, &lt;span style=&quot;color: rgb(38, 127, 153);&quot;&gt;Config&lt;/span&gt;],&lt;/div&gt;&lt;div&gt;&amp;nbsp; &amp;nbsp; &lt;span style=&quot;color: #001080;&quot;&gt;registry&lt;/span&gt;: &lt;span style=&quot;color: #267f99;&quot;&gt;Registry&lt;/span&gt;,&lt;/div&gt;&lt;div&gt;&amp;nbsp; &amp;nbsp; &lt;span style=&quot;color: #001080;&quot;&gt;default_args&lt;/span&gt;: &lt;span style=&quot;color: #267f99;&quot;&gt;Optional&lt;/span&gt;[&lt;span style=&quot;color: #267f99;&quot;&gt;Union&lt;/span&gt;[&lt;span style=&quot;color: #267f99;&quot;&gt;dict&lt;/span&gt;, &lt;span style=&quot;color: #a31515;&quot;&gt;&#39;&lt;/span&gt;&lt;span style=&quot;color: #267f99;&quot;&gt;ConfigDict&lt;/span&gt;&lt;span style=&quot;color: #a31515;&quot;&gt;&#39;&lt;/span&gt;, &lt;span style=&quot;color: #a31515;&quot;&gt;&#39;&lt;/span&gt;&lt;span style=&quot;color: #267f99;&quot;&gt;Config&lt;/span&gt;&lt;span style=&quot;color: #a31515;&quot;&gt;&#39;&lt;/span&gt;]] = &lt;span style=&quot;color: #0000ff;&quot;&gt;None&lt;/span&gt;&lt;/div&gt;&lt;div&gt;) -&amp;gt; &lt;span style=&quot;color: #a31515;&quot;&gt;&#39;&lt;/span&gt;&lt;span style=&quot;color: #267f99;&quot;&gt;nn&lt;/span&gt;&lt;span style=&quot;color: #a31515;&quot;&gt;.&lt;/span&gt;&lt;span style=&quot;color: #267f99;&quot;&gt;Module&lt;/span&gt;&lt;span style=&quot;color: #a31515;&quot;&gt;&#39;&lt;/span&gt;:&lt;/div&gt;&lt;/div&gt;&lt;/div&gt;" style="rounded=0;whiteSpace=wrap;html=1;align=left;" vertex="1" parent="1">
          <mxGeometry x="-80" y="840" width="700" height="100" as="geometry" />
        </mxCell>
        <mxCell id="kg68-Rnl9jc69O7SToxk-14" style="edgeStyle=orthogonalEdgeStyle;rounded=0;orthogonalLoop=1;jettySize=auto;html=1;exitX=0.5;exitY=1;exitDx=0;exitDy=0;entryX=0.5;entryY=0;entryDx=0;entryDy=0;" edge="1" parent="1" source="kg68-Rnl9jc69O7SToxk-10" target="kg68-Rnl9jc69O7SToxk-13">
          <mxGeometry relative="1" as="geometry" />
        </mxCell>
        <mxCell id="kg68-Rnl9jc69O7SToxk-10" value="&lt;div style=&quot;background-color: rgb(255, 255, 255); font-family: Consolas, &amp;quot;Courier New&amp;quot;, monospace; font-size: 18px; line-height: 24px; white-space: pre;&quot;&gt;&lt;div&gt;&lt;span style=&quot;color: #0000ff;&quot;&gt;def&lt;/span&gt; &lt;span style=&quot;color: #795e26;&quot;&gt;build_from_cfg&lt;/span&gt;(&lt;span style=&quot;color: rgb(0, 16, 128);&quot;&gt;cfg&lt;/span&gt;: &lt;span style=&quot;color: rgb(38, 127, 153);&quot;&gt;Union&lt;/span&gt;[&lt;span style=&quot;color: rgb(38, 127, 153);&quot;&gt;dict&lt;/span&gt;, &lt;span style=&quot;color: rgb(38, 127, 153);&quot;&gt;ConfigDict&lt;/span&gt;, &lt;span style=&quot;color: rgb(38, 127, 153);&quot;&gt;Config&lt;/span&gt;],&lt;span style=&quot;color: rgb(0, 16, 128);&quot;&gt;registry&lt;/span&gt;: &lt;span style=&quot;color: rgb(38, 127, 153);&quot;&gt;Registry&lt;/span&gt;,&lt;/div&gt;&lt;div&gt;&amp;nbsp; &amp;nbsp; &amp;nbsp; &amp;nbsp; &lt;span style=&quot;color: #001080;&quot;&gt;default_args&lt;/span&gt;: &lt;span style=&quot;color: #267f99;&quot;&gt;Optional&lt;/span&gt;[&lt;span style=&quot;color: #267f99;&quot;&gt;Union&lt;/span&gt;[&lt;span style=&quot;color: #267f99;&quot;&gt;dict&lt;/span&gt;, &lt;span style=&quot;color: #267f99;&quot;&gt;ConfigDict&lt;/span&gt;, &lt;span style=&quot;color: #267f99;&quot;&gt;Config&lt;/span&gt;]] = &lt;span style=&quot;color: #0000ff;&quot;&gt;None&lt;/span&gt;&lt;/div&gt;&lt;div&gt;) -&amp;gt; &lt;span style=&quot;color: #001080;&quot;&gt;Any&lt;/span&gt;:&lt;/div&gt;&lt;/div&gt;" style="rounded=0;whiteSpace=wrap;html=1;align=left;" vertex="1" parent="1">
          <mxGeometry x="-105" y="980" width="750" height="80" as="geometry" />
        </mxCell>
        <mxCell id="kg68-Rnl9jc69O7SToxk-12" style="edgeStyle=orthogonalEdgeStyle;rounded=0;orthogonalLoop=1;jettySize=auto;html=1;exitX=0.5;exitY=1;exitDx=0;exitDy=0;entryX=0.68;entryY=-0.027;entryDx=0;entryDy=0;entryPerimeter=0;dashed=1;" edge="1" parent="1" source="kg68-Rnl9jc69O7SToxk-6" target="kg68-Rnl9jc69O7SToxk-7">
          <mxGeometry relative="1" as="geometry" />
        </mxCell>
        <mxCell id="kg68-Rnl9jc69O7SToxk-13" value="&lt;div style=&quot;background-color: rgb(255, 255, 255); font-family: Consolas, &amp;quot;Courier New&amp;quot;, monospace; font-size: 18px; line-height: 24px; white-space: pre;&quot;&gt;&lt;span style=&quot;color: #001080;&quot;&gt;# 实际上就是调用构造函数&lt;/span&gt;&lt;/div&gt;&lt;div style=&quot;background-color: rgb(255, 255, 255); font-family: Consolas, &amp;quot;Courier New&amp;quot;, monospace; font-size: 18px; line-height: 24px; white-space: pre;&quot;&gt;&lt;span style=&quot;color: #001080;&quot;&gt;obj&lt;/span&gt; = &lt;span style=&quot;color: #001080;&quot;&gt;obj_cls&lt;/span&gt;(**&lt;span style=&quot;color: #001080;&quot;&gt;args&lt;/span&gt;) &amp;nbsp;&lt;span style=&quot;color: #008000;&quot;&gt;# type: ignore &lt;/span&gt;&lt;/div&gt;" style="rounded=0;whiteSpace=wrap;html=1;" vertex="1" parent="1">
          <mxGeometry x="60" y="1110" width="420" height="50" as="geometry" />
        </mxCell>
      </root>
    </mxGraphModel>
  </diagram>
</mxfile>
